<svg width="100%" height="100%" viewBox="0 0 40 47" fill="none" xmlns="http://www.w3.org/2000/svg"><path d="M28.9339 22.0436C27.4822 22.168 26.8127 21.5222 26.3387 20.5682C26.2142 20.3134 26.0128 20.1001 25.8469 19.8631C25.6099 20.0883 25.2543 20.2779 25.1655 20.5504C24.6737 22.0495 24.2056 23.5545 23.8382 25.0891C23.773 25.3676 24.1286 25.9187 24.4367 26.0786C24.9877 26.3749 25.6454 26.4756 26.2616 26.6534C27.2511 26.9437 28.2643 27.1748 29.2301 27.5303C30.7055 28.0814 31.221 29.0175 30.8122 30.564C30.1308 33.1355 29.3546 35.6834 28.5961 38.2371C28.2288 39.4636 27.8496 40.6902 27.4111 41.8871C26.9015 43.2854 25.5921 43.9668 24.3952 43.5461C23.0916 43.0839 22.3569 41.6737 22.8013 40.2873C23.5479 37.9942 24.33 35.7071 25.1477 33.4377C25.6276 32.0986 25.3728 31.5713 23.9271 31.2217C22.1555 30.7951 20.372 30.404 18.6122 29.93C17.9664 29.7582 17.522 29.9122 17.2435 30.4455C16.7102 31.4409 16.1473 32.4364 15.7563 33.4911C14.909 35.7604 13.635 37.6446 11.7271 39.2029C9.59999 40.9449 7.68023 42.9417 5.65974 44.82C5.26275 45.1874 4.84799 45.5488 4.39768 45.8392C3.29559 46.5383 2.25276 46.3724 1.3462 45.4066C0.445574 44.4467 0.380397 43.6587 1.17437 42.4914C1.50618 42.0056 1.89132 41.5493 2.32386 41.1523C4.21992 39.4281 6.0745 37.6624 8.06537 36.0507C10.0503 34.445 10.8087 32.1223 11.9878 30.0367C13.7891 26.8608 14.4883 23.3057 15.543 19.8691C16.0051 18.3641 16.3962 16.8294 16.7517 15.2948C16.9946 14.2697 16.5799 13.8431 15.5133 13.855C13.5165 13.8846 12.9181 14.3171 12.4026 16.2784C11.976 17.9019 11.6264 19.5432 11.2235 21.1667C11.105 21.6407 10.9687 22.1265 10.7317 22.5472C10.234 23.4182 9.55852 23.6612 8.74676 23.3234C7.90539 22.9739 7.52618 22.3399 7.73356 21.4274C8.02982 20.1298 8.332 18.8321 8.65196 17.5405C9.00747 16.1006 9.34521 14.6608 9.75405 13.2388C10.2695 11.4316 10.9687 10.9576 12.8055 10.8272C15.2645 10.6554 17.7234 10.4599 20.1705 10.1991C23.0383 9.89103 25.5447 11.3131 26.9608 14.1631C27.3519 14.9571 27.7074 15.7747 28.051 16.5865C28.8332 18.4411 29.4849 18.7907 31.4758 18.4529C33.2237 18.1567 34.9835 17.8841 36.7314 17.6056C36.9744 17.5642 37.2173 17.4931 37.4602 17.499C38.3609 17.5168 39.1252 18.1685 39.2378 18.9921C39.3326 19.6735 38.7401 20.4556 37.8454 20.6275C36.1508 20.9534 34.4443 21.2081 32.7438 21.4748C31.381 21.6881 30.0123 21.8658 28.9339 22.0199V22.0436Z" fill="#FFFFFF"></path><path d="M28.2307 5.25763C28.2189 7.60993 26.3169 9.47637 23.9824 9.42897C21.5767 9.37564 19.4081 7.40255 19.5503 5.18061C19.7103 2.76313 20.9487 0.766339 24.0772 0.77819C26.3643 0.79004 28.2426 2.83423 28.2248 5.25763H28.2307Z" fill="#FFFFFF"></path></svg>