<svg width="100%" height="100%" viewBox="0 0 51 57" fill="none" xmlns="http://www.w3.org/2000/svg"><path d="M49.8251 6.803H46.8701V2.22306C46.8701 1.42307 46.2201 0.778076 45.4251 0.778076C44.6302 0.778076 43.9802 1.42807 43.9802 2.22306V6.803H38.7502C38.5852 6.298 38.2252 5.86301 37.7052 5.62301C36.7153 5.16802 35.5453 5.59801 35.0903 6.588L34.9903 6.808H15.9705L15.8705 6.588C15.4155 5.59801 14.2406 5.16802 13.2556 5.62301C12.7356 5.86301 12.3756 6.303 12.2106 6.803H6.98065V2.22306C6.98065 1.42307 6.33066 0.778076 5.53567 0.778076C4.74068 0.778076 4.09069 1.42807 4.09069 2.22306V6.803H1.13072C0.580731 6.803 0.130737 7.24799 0.130737 7.80299C0.130737 8.35798 0.575732 8.80297 1.13072 8.80297H4.08569V13.4529C4.08569 14.2529 4.73568 14.8979 5.53067 14.8979C6.32566 14.8979 6.97565 14.2479 6.97565 13.4529V8.80297H12.5456L19.5505 23.9778V54.0324C19.5505 55.2674 20.5505 56.2674 21.7855 56.2674C23.0204 56.2674 24.0204 55.2674 24.0204 54.0324V38.9976H26.9454V54.0324C26.9454 55.2674 27.9454 56.2674 29.1804 56.2674C30.4153 56.2674 31.4153 55.2674 31.4153 54.0324V23.9778L38.4202 8.80297H43.9902V13.4529C43.9902 14.2529 44.6402 14.8979 45.4352 14.8979C46.2301 14.8979 46.8801 14.2479 46.8801 13.4529V8.80297H49.8351C50.3851 8.80297 50.8351 8.35798 50.8351 7.80299C50.8351 7.24799 50.3901 6.803 49.8351 6.803H49.8251ZM28.4454 20.9778H22.5054L16.8855 8.80297H34.0603L28.4404 20.9778H28.4454Z" fill="#FFFFFF"></path><path d="M25.4758 17.8329C27.5164 17.8329 29.1707 16.1786 29.1707 14.1379C29.1707 12.0973 27.5164 10.443 25.4758 10.443C23.4351 10.443 21.7808 12.0973 21.7808 14.1379C21.7808 16.1786 23.4351 17.8329 25.4758 17.8329Z" fill="#FFFFFF"></path></svg>